<?xml version="1.0" encoding="UTF-8"?>
<!DOCTYPE svg PUBLIC "-//W3C//DTD SVG 1.1//EN" "http://www.w3.org/Graphics/SVG/1.1/DTD/svg11.dtd">
<svg xmlns="http://www.w3.org/2000/svg" version="1.1" width="658px" height="517px" style="shape-rendering:geometricPrecision; text-rendering:geometricPrecision; image-rendering:optimizeQuality; fill-rule:evenodd; clip-rule:evenodd" xmlns:xlink="http://www.w3.org/1999/xlink">
<g><path style="opacity:1" fill="#fefefe" d="M -0.5,-0.5 C 218.833,-0.5 438.167,-0.5 657.5,-0.5C 657.5,171.833 657.5,344.167 657.5,516.5C 438.167,516.5 218.833,516.5 -0.5,516.5C -0.5,344.167 -0.5,171.833 -0.5,-0.5 Z"/></g>
<g><path style="opacity:1" fill="#e8e472" d="M 266.5,230.5 C 256.441,210.715 246.608,190.715 237,170.5C 236.221,169.272 235.221,168.272 234,167.5C 233.5,167.833 233,168.167 232.5,168.5C 226.6,214.1 221.1,259.767 216,305.5C 213.005,310.546 208.505,312.879 202.5,312.5C 215.833,313.833 229.167,313.833 242.5,312.5C 239.371,310.978 236.037,310.145 232.5,310C 231.667,309.167 230.833,308.333 230,307.5C 229.833,303.667 229.667,299.833 229.5,296C 231.393,265.975 234.227,236.141 238,206.5C 250.209,232.957 262.709,259.29 275.5,285.5C 271.702,288.796 268.036,292.296 264.5,296C 268.881,294.299 272.881,291.799 276.5,288.5C 281.147,295.785 285.313,303.452 289,311.5C 289.837,313.007 291.004,313.507 292.5,313C 301.248,295.671 309.582,278.171 317.5,260.5C 325.455,255.849 333.121,250.682 340.5,245C 343.071,243.546 345.738,242.38 348.5,241.5C 349.981,253.455 350.981,265.455 351.5,277.5C 346.038,289.757 340.038,301.757 333.5,313.5C 333.667,313.833 333.833,314.167 334,314.5C 340.403,306.94 346.57,299.273 352.5,291.5C 354.913,298.437 354.913,305.437 352.5,312.5C 363.489,313.119 374.489,313.452 385.5,313.5C 384.339,318.136 383.505,322.803 383,327.5C 385.258,322.647 387.758,317.981 390.5,313.5C 392.424,313.289 392.757,312.623 391.5,311.5C 397.898,298.37 404.565,285.37 411.5,272.5C 415.588,281.002 420.922,288.669 427.5,295.5C 427.485,299.56 427.985,303.56 429,307.5C 429.396,304.343 430.229,301.343 431.5,298.5C 438.044,303.273 445.044,307.273 452.5,310.5C 449.477,322.542 444.81,333.875 438.5,344.5C 432.5,344.5 426.5,344.5 420.5,344.5C 420.263,345.791 420.596,346.791 421.5,347.5C 426.5,347.5 431.5,347.5 436.5,347.5C 409.209,390.17 370.209,414.67 319.5,421C 267.6,424.125 224.1,406.625 189,368.5C 183.663,361.819 178.83,354.819 174.5,347.5C 183.5,347.5 192.5,347.5 201.5,347.5C 202.404,346.791 202.737,345.791 202.5,344.5C 192.5,344.5 182.5,344.5 172.5,344.5C 155.212,313.8 148.545,280.8 152.5,245.5C 171.54,238.104 181.206,224.104 181.5,203.5C 181.333,201.167 181.167,198.833 181,196.5C 179.487,192.812 177.987,189.145 176.5,185.5C 193.921,156.922 218.254,136.422 249.5,124C 271.785,115.274 294.785,112.274 318.5,115C 325.02,116.592 331.354,118.759 337.5,121.5C 338.614,122.723 338.781,124.056 338,125.5C 334.016,127.718 329.85,129.551 325.5,131C 311.605,133.979 297.605,136.312 283.5,138C 298.847,139.793 313.847,143.126 328.5,148C 329.354,149.022 330.354,149.855 331.5,150.5C 332.614,151.723 332.781,153.056 332,154.5C 329.592,156.956 326.759,158.789 323.5,160C 303.658,166.706 283.658,173.039 263.5,179C 285.5,179.333 307.5,179.667 329.5,180C 334.325,182.339 334.825,185.506 331,189.5C 328.261,192.118 325.427,194.618 322.5,197C 303.925,208.428 285.258,219.595 266.5,230.5 Z"/></g>
<g><path style="opacity:1" fill="#070604" d="M 266.5,230.5 C 266.328,231.492 266.662,232.158 267.5,232.5C 273.93,246.359 280.597,260.025 287.5,273.5C 287.992,275.819 288.992,277.819 290.5,279.5C 291.714,282.93 293.214,286.264 295,289.5C 298.12,283.595 300.954,277.595 303.5,271.5C 306.831,264.171 310.164,256.838 313.5,249.5C 319.167,237.5 324.833,225.5 330.5,213.5C 337.593,198.98 344.426,184.313 351,169.5C 352.11,167.963 353.61,167.297 355.5,167.5C 358.459,190.464 361.126,213.464 363.5,236.5C 364.021,240.481 364.354,244.481 364.5,248.5C 365.369,257.186 366.369,265.853 367.5,274.5C 368.338,283.205 369.505,291.872 371,300.5C 373.417,306.763 377.917,310.096 384.5,310.5C 386.607,311.468 388.941,311.802 391.5,311.5C 392.757,312.623 392.424,313.289 390.5,313.5C 388.833,313.5 387.167,313.5 385.5,313.5C 374.489,313.452 363.489,313.119 352.5,312.5C 354.913,305.437 354.913,298.437 352.5,291.5C 352.819,286.637 352.486,281.97 351.5,277.5C 350.981,265.455 349.981,253.455 348.5,241.5C 347.203,229.862 346.036,218.195 345,206.5C 344.333,205.167 343.667,205.167 343,206.5C 341.878,208.407 341.045,210.407 340.5,212.5C 337.263,218.643 334.263,224.976 331.5,231.5C 326.561,241.045 321.894,250.711 317.5,260.5C 309.582,278.171 301.248,295.671 292.5,313C 291.004,313.507 289.837,313.007 289,311.5C 285.313,303.452 281.147,295.785 276.5,288.5C 276.443,287.391 276.11,286.391 275.5,285.5C 262.709,259.29 250.209,232.957 238,206.5C 234.227,236.141 231.393,265.975 229.5,296C 229.667,299.833 229.833,303.667 230,307.5C 230.833,308.333 231.667,309.167 232.5,310C 236.037,310.145 239.371,310.978 242.5,312.5C 229.167,313.833 215.833,313.833 202.5,312.5C 208.505,312.879 213.005,310.546 216,305.5C 221.1,259.767 226.6,214.1 232.5,168.5C 233,168.167 233.5,167.833 234,167.5C 235.221,168.272 236.221,169.272 237,170.5C 246.608,190.715 256.441,210.715 266.5,230.5 Z"/></g>
<g><path style="opacity:1" fill="#070707" d="M 436.5,279.5 C 441.877,287.211 448.544,293.545 456.5,298.5C 473.854,307.454 492.187,309.954 511.5,306C 523.841,301.987 530.674,293.487 532,280.5C 532.414,280.043 532.914,279.709 533.5,279.5C 534.666,290.182 533.166,300.515 529,310.5C 520.227,313.997 511.06,315.83 501.5,316C 484.68,317.896 468.346,316.063 452.5,310.5C 445.044,307.273 438.044,303.273 431.5,298.5C 430.564,297.026 429.23,296.026 427.5,295.5C 420.922,288.669 415.588,281.002 411.5,272.5C 398.862,238.231 405.528,208.397 431.5,183C 442.837,173.837 455.837,168.837 470.5,168C 482.5,167.333 494.5,167.333 506.5,168C 515.365,170.171 524.365,171.505 533.5,172C 534.097,173.062 534.43,174.228 534.5,175.5C 533.736,186.147 533.236,196.814 533,207.5C 532,208.833 531,208.833 530,207.5C 531.001,194.321 525.501,185.154 513.5,180C 495.836,173.868 477.836,172.868 459.5,177C 441.867,183.302 430.367,195.468 425,213.5C 419.04,237.415 422.873,259.415 436.5,279.5 Z"/></g>
<g><path style="opacity:1" fill="#060606" d="M 176.5,185.5 C 177.987,189.145 179.487,192.812 181,196.5C 181.167,198.833 181.333,201.167 181.5,203.5C 181.206,224.104 171.54,238.104 152.5,245.5C 146.103,246.991 139.603,247.991 133,248.5C 127.345,247.863 127.178,246.697 132.5,245C 140.637,245.302 147.97,243.135 154.5,238.5C 160.514,233.968 164.348,227.968 166,220.5C 166.781,215.083 166.615,209.75 165.5,204.5C 163.218,191.72 156.218,182.553 144.5,177C 137.215,175.586 129.882,175.253 122.5,176C 122,176.5 121.5,177 121,177.5C 120.333,218.5 120.333,259.5 121,300.5C 121.027,304.386 122.527,307.552 125.5,310C 129.883,310.602 134.216,311.435 138.5,312.5C 122.833,313.833 107.167,313.833 91.5,312.5C 94.5338,311.433 97.5338,310.266 100.5,309C 101.893,307.829 102.727,306.329 103,304.5C 104.602,263.187 104.935,221.853 104,180.5C 103.608,177.545 102.108,175.378 99.5,174C 95.9399,172.763 92.2733,172.263 88.5,172.5C 88.5,171.5 88.5,170.5 88.5,169.5C 107.49,170.396 126.49,170.563 145.5,170C 158.093,170.963 168.426,176.13 176.5,185.5 Z"/></g>
<g><path style="opacity:1" fill="#fafaf8" d="M 348.5,241.5 C 345.738,242.38 343.071,243.546 340.5,245C 333.121,250.682 325.455,255.849 317.5,260.5C 321.894,250.711 326.561,241.045 331.5,231.5C 335.847,227.314 339.68,222.647 343,217.5C 344.077,214.738 343.244,213.072 340.5,212.5C 341.045,210.407 341.878,208.407 343,206.5C 343.667,205.167 344.333,205.167 345,206.5C 346.036,218.195 347.203,229.862 348.5,241.5 Z"/></g>
<g><path style="opacity:1" fill="#e2df75" d="M 165.5,204.5 C 166.615,209.75 166.781,215.083 166,220.5C 164.348,227.968 160.514,233.968 154.5,238.5C 156.594,226.554 160.261,215.22 165.5,204.5 Z"/></g>
<g><path style="opacity:1" fill="#deda74" d="M 340.5,212.5 C 343.244,213.072 344.077,214.738 343,217.5C 339.68,222.647 335.847,227.314 331.5,231.5C 334.263,224.976 337.263,218.643 340.5,212.5 Z"/></g>
<g><path style="opacity:1" fill="#e8e473" d="M 330.5,213.5 C 324.833,225.5 319.167,237.5 313.5,249.5C 304.533,257.132 295.866,265.132 287.5,273.5C 280.597,260.025 273.93,246.359 267.5,232.5C 288.201,225.155 309.201,218.822 330.5,213.5 Z"/></g>
<g><path style="opacity:1" fill="#e8e47d" d="M 363.5,236.5 C 365.818,236.818 367.152,238.152 367.5,240.5C 366.866,243.416 365.866,246.082 364.5,248.5C 364.354,244.481 364.021,240.481 363.5,236.5 Z"/></g>
<g><path style="opacity:1" fill="#f9f9f6" d="M 313.5,249.5 C 310.164,256.838 306.831,264.171 303.5,271.5C 299.027,273.905 294.694,276.571 290.5,279.5C 288.992,277.819 287.992,275.819 287.5,273.5C 295.866,265.132 304.533,257.132 313.5,249.5 Z"/></g>
<g><path style="opacity:1" fill="#e8e473" d="M 384.5,310.5 C 377.917,310.096 373.417,306.763 371,300.5C 369.505,291.872 368.338,283.205 367.5,274.5C 373.969,267.199 380.969,260.365 388.5,254C 390.701,253.175 392.534,253.675 394,255.5C 394.793,264.602 394.127,273.602 392,282.5C 390.357,291.213 388.524,299.88 386.5,308.5C 386.253,309.713 385.586,310.38 384.5,310.5 Z"/></g>
<g><path style="opacity:1" fill="#e8e475" d="M 456.5,298.5 C 448.544,293.545 441.877,287.211 436.5,279.5C 437.596,274.049 439.763,269.049 443,264.5C 444.489,262.668 446.322,261.835 448.5,262C 451.567,265.297 453.733,269.131 455,273.5C 456.33,281.773 456.83,290.107 456.5,298.5 Z"/></g>
<g><path style="opacity:1" fill="#e0dc6f" d="M 303.5,271.5 C 300.954,277.595 298.12,283.595 295,289.5C 293.214,286.264 291.714,282.93 290.5,279.5C 294.694,276.571 299.027,273.905 303.5,271.5 Z"/></g>
<g><path style="opacity:1" fill="#f9f9f2" d="M 351.5,277.5 C 352.486,281.97 352.819,286.637 352.5,291.5C 346.57,299.273 340.403,306.94 334,314.5C 333.833,314.167 333.667,313.833 333.5,313.5C 340.038,301.757 346.038,289.757 351.5,277.5 Z"/></g>
<g><path style="opacity:1" fill="#fcfbf6" d="M 275.5,285.5 C 276.11,286.391 276.443,287.391 276.5,288.5C 272.881,291.799 268.881,294.299 264.5,296C 268.036,292.296 271.702,288.796 275.5,285.5 Z"/></g>
<g><path style="opacity:1" fill="#f6f5e9" d="M 427.5,295.5 C 429.23,296.026 430.564,297.026 431.5,298.5C 430.229,301.343 429.396,304.343 429,307.5C 427.985,303.56 427.485,299.56 427.5,295.5 Z"/></g>
<g><path style="opacity:1" fill="#efeedc" d="M 385.5,313.5 C 387.167,313.5 388.833,313.5 390.5,313.5C 387.758,317.981 385.258,322.647 383,327.5C 383.505,322.803 384.339,318.136 385.5,313.5 Z"/></g>
<g><path style="opacity:1" fill="#100f07" d="M 271.5,334.5 C 275.884,334.174 280.217,334.508 284.5,335.5C 281.232,336.487 277.898,336.82 274.5,336.5C 274.5,339.167 274.5,341.833 274.5,344.5C 285.167,345.167 285.167,345.833 274.5,346.5C 274.5,349.5 274.5,352.5 274.5,355.5C 278.226,355.177 281.893,355.511 285.5,356.5C 280.88,357.493 276.214,357.827 271.5,357.5C 271.5,349.833 271.5,342.167 271.5,334.5 Z"/></g>
<g><path style="opacity:1" fill="#14130a" d="M 289.5,334.5 C 293.182,334.335 296.848,334.501 300.5,335C 304.292,337.053 305.458,340.219 304,344.5C 302.647,345.685 301.48,347.019 300.5,348.5C 302.293,351.251 303.959,354.084 305.5,357C 304.5,357.667 303.5,357.667 302.5,357C 300.623,354.749 299.123,352.249 298,349.5C 296.604,347.473 294.938,347.14 293,348.5C 292.502,351.482 292.335,354.482 292.5,357.5C 291.5,357.5 290.5,357.5 289.5,357.5C 289.5,349.833 289.5,342.167 289.5,334.5 Z"/></g>
<g><path style="opacity:1" fill="#17160d" d="M 363.5,334.5 C 367.219,334.002 370.553,334.836 373.5,337C 373,337.5 372.5,338 372,338.5C 368.102,335.416 364.935,335.916 362.5,340C 362.759,341.261 363.426,342.261 364.5,343C 368.037,344.281 371.204,346.114 374,348.5C 375.123,351.956 374.29,354.79 371.5,357C 368.167,357.667 364.833,357.667 361.5,357C 359.74,356.035 359.406,354.868 360.5,353.5C 363.289,355.298 366.289,355.798 369.5,355C 371.602,353.267 371.935,351.267 370.5,349C 366.581,347.46 363.081,345.293 360,342.5C 359.279,338.946 360.446,336.28 363.5,334.5 Z"/></g>
<g><path style="opacity:1" fill="#121109" d="M 379.5,334.5 C 383.884,334.174 388.217,334.508 392.5,335.5C 389.232,336.487 385.898,336.82 382.5,336.5C 382.5,339.167 382.5,341.833 382.5,344.5C 393.167,345.167 393.167,345.833 382.5,346.5C 382.5,349.5 382.5,352.5 382.5,355.5C 385.898,355.18 389.232,355.513 392.5,356.5C 388.217,357.492 383.884,357.826 379.5,357.5C 379.5,349.833 379.5,342.167 379.5,334.5 Z"/></g>
<g><path style="opacity:1" fill="#17160d" d="M 400.5,334.5 C 403.187,334.336 405.854,334.503 408.5,335C 410.26,335.965 410.594,337.132 409.5,338.5C 405.447,335.305 402.447,335.972 400.5,340.5C 400.608,341.442 400.941,342.275 401.5,343C 405.207,343.936 408.374,345.769 411,348.5C 412.12,351.999 411.287,354.833 408.5,357C 405.5,357.667 402.5,357.667 399.5,357C 396.733,356.331 396.233,355.164 398,353.5C 400.561,355.344 403.394,355.844 406.5,355C 408.698,353.33 409.032,351.33 407.5,349C 404.088,347.545 400.921,345.712 398,343.5C 396.927,339.9 397.76,336.9 400.5,334.5 Z"/></g>
<g><path style="opacity:1" fill="#1f1e12" d="M 210.5,334.5 C 215.214,334.173 219.88,334.507 224.5,335.5C 221.232,336.487 217.898,336.82 214.5,336.5C 214.5,339.167 214.5,341.833 214.5,344.5C 225.167,345.167 225.167,345.833 214.5,346.5C 214.5,349.5 214.5,352.5 214.5,355.5C 217.898,355.18 221.232,355.513 224.5,356.5C 219.88,357.493 215.214,357.827 210.5,357.5C 210.5,349.833 210.5,342.167 210.5,334.5 Z"/></g>
<g><path style="opacity:1" fill="#18170d" d="M 250.5,334.5 C 256.206,334.171 261.872,334.505 267.5,335.5C 265.257,336.474 262.924,336.808 260.5,336.5C 260.5,343.5 260.5,350.5 260.5,357.5C 259.5,357.5 258.5,357.5 257.5,357.5C 257.666,350.825 257.5,344.158 257,337.5C 254.37,337.141 252.203,336.141 250.5,334.5 Z"/></g>
<g><path style="opacity:1" fill="#16150c" d="M 310.5,334.5 C 313.85,334.335 317.183,334.502 320.5,335C 325.218,336.449 326.718,339.615 325,344.5C 322.003,347.967 318.169,349.3 313.5,348.5C 313.5,351.5 313.5,354.5 313.5,357.5C 312.5,357.5 311.5,357.5 310.5,357.5C 310.5,349.833 310.5,342.167 310.5,334.5 Z"/></g>
<g><path style="opacity:1" fill="#19180d" d="M 330.5,334.5 C 333.85,334.335 337.183,334.502 340.5,335C 345.218,336.449 346.718,339.615 345,344.5C 343.444,345.52 342.278,346.853 341.5,348.5C 342.773,351.542 344.439,354.376 346.5,357C 345.056,357.781 343.723,357.614 342.5,356.5C 341.294,353.921 339.961,351.421 338.5,349C 336.866,348.506 335.199,348.34 333.5,348.5C 333.5,351.5 333.5,354.5 333.5,357.5C 332.5,357.5 331.5,357.5 330.5,357.5C 330.5,349.833 330.5,342.167 330.5,334.5 Z"/></g>
<g><path style="opacity:1" fill="#030301" d="M 351.5,334.5 C 352.823,337.938 353.49,341.771 353.5,346C 353.167,349.833 352.833,353.667 352.5,357.5C 351.503,349.862 351.169,342.196 351.5,334.5 Z"/></g>
<g><path style="opacity:1" fill="#dbd86c" d="M 299.5,337.5 C 302.077,338.69 302.91,340.69 302,343.5C 299.435,345.179 296.602,345.846 293.5,345.5C 293.5,342.833 293.5,340.167 293.5,337.5C 295.5,337.5 297.5,337.5 299.5,337.5 Z"/></g>
<g><path style="opacity:1" fill="#dad66b" d="M 313.5,336.5 C 320.98,335.14 323.647,337.974 321.5,345C 318.937,346.079 316.271,346.579 313.5,346.5C 313.5,343.167 313.5,339.833 313.5,336.5 Z"/></g>
<g><path style="opacity:1" fill="#e0dc6e" d="M 333.5,336.5 C 336.602,336.154 339.435,336.821 342,338.5C 342.819,344.832 339.986,347.165 333.5,345.5C 333.5,342.5 333.5,339.5 333.5,336.5 Z"/></g>
<g><path style="opacity:1" fill="#858341" d="M 299.5,337.5 C 297.5,337.5 295.5,337.5 293.5,337.5C 293.5,340.167 293.5,342.833 293.5,345.5C 292.523,342.713 292.19,339.713 292.5,336.5C 295.059,336.198 297.393,336.532 299.5,337.5 Z"/></g>
<g><path style="opacity:1" fill="#282723" d="M 102.5,345.5 C 125.661,344.502 148.994,344.169 172.5,344.5C 182.5,344.5 192.5,344.5 202.5,344.5C 202.737,345.791 202.404,346.791 201.5,347.5C 168.85,345.507 135.85,344.84 102.5,345.5 Z"/></g>
<g><path style="opacity:1" fill="#282724" d="M 438.5,344.5 C 466.005,344.169 493.338,344.502 520.5,345.5C 487.15,344.84 454.15,345.507 421.5,347.5C 420.596,346.791 420.263,345.791 420.5,344.5C 426.5,344.5 432.5,344.5 438.5,344.5 Z"/></g>
<g><path style="opacity:1" fill="#000000" d="M 102.5,345.5 C 135.85,344.84 168.85,345.507 201.5,347.5C 192.5,347.5 183.5,347.5 174.5,347.5C 150.143,348.157 126.143,347.49 102.5,345.5 Z"/></g>
<g><path style="opacity:1" fill="#000000" d="M 520.5,345.5 C 492.853,347.492 464.853,348.158 436.5,347.5C 431.5,347.5 426.5,347.5 421.5,347.5C 454.15,345.507 487.15,344.84 520.5,345.5 Z"/></g>
<g><path style="opacity:1" fill="#1a190f" d="M 241.5,350.5 C 241.783,351.289 242.283,351.956 243,352.5C 243.499,346.509 243.666,340.509 243.5,334.5C 244.5,334.5 245.5,334.5 246.5,334.5C 246.5,342.167 246.5,349.833 246.5,357.5C 245.022,357.762 243.689,357.429 242.5,356.5C 239.081,351.332 235.915,345.998 233,340.5C 232.501,346.157 232.334,351.824 232.5,357.5C 231.5,357.5 230.5,357.5 229.5,357.5C 229.5,349.833 229.5,342.167 229.5,334.5C 231.39,334.297 232.89,334.963 234,336.5C 236.73,341.058 239.23,345.725 241.5,350.5 Z"/></g>
<g><path style="opacity:1" fill="#959249" d="M 243.5,334.5 C 243.666,340.509 243.499,346.509 243,352.5C 242.283,351.956 241.783,351.289 241.5,350.5C 242.167,345.167 242.833,339.833 243.5,334.5 Z"/></g>
</svg>
